<?xml version="1.0" encoding="UTF-8"?>
<!DOCTYPE svg PUBLIC "-//W3C//DTD SVG 1.1//EN" "http://www.w3.org/Graphics/SVG/1.1/DTD/svg11.dtd">
<!-- Creator: CorelDRAW 2021 (64-Bit) -->
<svg xmlns="http://www.w3.org/2000/svg" xml:space="preserve" width="18.11mm" height="8.4668mm" version="1.1" style="shape-rendering:geometricPrecision; text-rendering:geometricPrecision; image-rendering:optimizeQuality; fill-rule:evenodd; clip-rule:evenodd"
viewBox="0 0 1799.34 841.23"
 xmlns:xlink="http://www.w3.org/1999/xlink"
 xmlns:xodm="http://www.corel.com/coreldraw/odm/2003">
 <defs>
  <style type="text/css">
   <![CDATA[
    .fil5 {fill:#F39314}
    .fil4 {fill:#E31E24}
    .fil7 {fill:#67B437}
    .fil6 {fill:#0198A0}
    .fil2 {fill:#395D80}
    .fil3 {fill:#00A0E3}
    .fil0 {fill:#E31E24;fill-rule:nonzero}
    .fil1 {fill:#0C54A0;fill-rule:nonzero}
   ]]>
  </style>
 </defs>
 <g id="Layer_x0020_1">
  <metadata id="CorelCorpID_0Corel-Layer"/>
  <g id="Unisol_x0020_FINAL_x0020_Logo.cdr">
   <path class="fil0" d="M422.7 655.46c0,-2.99 -1.06,-5.28 -3.16,-6.88 -2.11,-1.61 -5.9,-3.3 -11.4,-5.06 -5.48,-1.79 -9.83,-3.53 -13.03,-5.26 -8.71,-4.72 -13.07,-11.05 -13.07,-19.04 0,-4.14 1.17,-7.85 3.51,-11.09 2.32,-3.26 5.68,-5.79 10.06,-7.63 4.37,-1.82 9.28,-2.73 14.73,-2.73 5.48,0 10.36,0.98 14.65,2.98 4.3,1.98 7.63,4.79 10.01,8.41 2.36,3.62 3.55,7.74 3.55,12.33l-15.82 0c0,-3.51 -1.1,-6.25 -3.31,-8.19 -2.22,-1.97 -5.33,-2.94 -9.34,-2.94 -3.87,0 -6.88,0.81 -9.02,2.45 -2.14,1.64 -3.2,3.8 -3.2,6.46 0,2.5 1.24,4.59 3.76,6.28 2.52,1.69 6.21,3.28 11.11,4.75 9,2.7 15.55,6.07 19.67,10.06 4.1,4.01 6.15,8.99 6.15,14.97 0,6.66 -2.5,11.85 -7.54,15.64 -5.02,3.78 -11.78,5.66 -20.3,5.66 -5.9,0 -11.27,-1.08 -16.13,-3.24 -4.86,-2.16 -8.54,-5.13 -11.1,-8.89 -2.54,-3.76 -3.82,-8.11 -3.82,-13.06l15.87 0c0,8.48 5.06,12.7 15.17,12.7 3.77,0 6.72,-0.76 8.82,-2.29 2.1,-1.53 3.16,-3.67 3.16,-6.42zm110.56 -13.14l-30.35 0 0 20.58 35.63 0 0 12.7 -51.45 0 0 -76.76 51.34 0 0 12.81 -35.52 0 0 18.3 30.35 0 0 12.38zm80.8 5.17l-12.6 0 0 28.11 -15.82 0 0 -76.76 28.53 0c9.07,0 16.06,2.01 20.98,6.06 4.91,4.05 7.38,9.76 7.38,17.13 0,5.24 -1.14,9.61 -3.41,13.11 -2.27,3.49 -5.7,6.28 -10.31,8.35l16.61 31.39 0 0.74 -16.97 0 -14.4 -28.11zm-12.6 -12.81l12.77 0c3.95,0 7.03,-1.01 9.21,-3.03 2.18,-2.03 3.28,-4.8 3.28,-8.37 0,-3.62 -1.03,-6.46 -3.08,-8.52 -2.08,-2.08 -5.22,-3.12 -9.47,-3.12l-12.71 0 0 23.04zm119.28 21.88l17.4 -57.73 17.61 0 -26.73 76.76 -16.5 0 -26.62 -76.76 17.55 0 17.3 57.73zm96.86 19.04l-15.8 0 0 -76.76 15.8 0 0 76.76zm112.76 -25.56c-0.62,8.26 -3.66,14.77 -9.16,19.5 -5.48,4.75 -12.74,7.12 -21.74,7.12 -9.85,0 -17.58,-3.31 -23.23,-9.94 -5.63,-6.62 -8.46,-15.73 -8.46,-27.27l0 -4.7c0,-7.38 1.29,-13.89 3.9,-19.51 2.58,-5.62 6.31,-9.95 11.14,-12.96 4.84,-3 10.45,-4.49 16.84,-4.49 8.87,0 16,2.37 21.41,7.12 5.42,4.73 8.53,11.39 9.38,19.97l-15.82 0c-0.38,-4.95 -1.77,-8.54 -4.14,-10.78 -2.35,-2.23 -5.97,-3.35 -10.83,-3.35 -5.28,0 -9.21,1.9 -11.82,5.67 -2.62,3.78 -3.97,9.63 -4.03,17.59l0 5.79c0,8.3 1.24,14.36 3.77,18.19 2.51,3.84 6.48,5.74 11.89,5.74 4.88,0 8.53,-1.12 10.94,-3.35 2.39,-2.24 3.79,-5.69 4.14,-10.36l15.82 0zm94.38 -7.71l-30.35 0 0 20.58 35.63 0 0 12.7 -51.45 0 0 -76.76 51.34 0 0 12.81 -35.52 0 0 18.3 30.35 0 0 12.38zm92.19 13.14c0,-2.99 -1.06,-5.28 -3.17,-6.88 -2.11,-1.61 -5.9,-3.3 -11.39,-5.06 -5.49,-1.79 -9.83,-3.53 -13.04,-5.26 -8.7,-4.72 -13.07,-11.05 -13.07,-19.04 0,-4.14 1.17,-7.85 3.52,-11.09 2.31,-3.26 5.68,-5.79 10.05,-7.63 4.37,-1.82 9.29,-2.73 14.74,-2.73 5.48,0 10.36,0.98 14.65,2.98 4.3,1.98 7.63,4.79 10.01,8.41 2.35,3.62 3.55,7.74 3.55,12.33l-15.82 0c0,-3.51 -1.1,-6.25 -3.32,-8.19 -2.21,-1.97 -5.33,-2.94 -9.34,-2.94 -3.86,0 -6.88,0.81 -9.01,2.45 -2.15,1.64 -3.2,3.8 -3.2,6.46 0,2.5 1.23,4.59 3.76,6.28 2.52,1.69 6.21,3.28 11.11,4.75 8.99,2.7 15.54,6.07 19.66,10.06 4.1,4.01 6.16,8.99 6.16,14.97 0,6.66 -2.5,11.85 -7.54,15.64 -5.03,3.78 -11.79,5.66 -20.3,5.66 -5.9,0 -11.27,-1.08 -16.13,-3.24 -4.86,-2.16 -8.54,-5.13 -11.11,-8.89 -2.53,-3.76 -3.82,-8.11 -3.82,-13.06l15.88 0c0,8.48 5.06,12.7 15.17,12.7 3.76,0 6.71,-0.76 8.81,-2.29 2.11,-1.53 3.17,-3.67 3.17,-6.42zm133.97 7.43l33.58 0 0 12.7 -49.4 0 0 -76.76 15.82 0 0 64.06zm96.3 0l33.57 0 0 12.7 -49.39 0 0 -76.76 15.82 0 0 64.06zm96.29 -14.35l0 27.04 -15.82 0 0 -76.76 29.95 0c5.76,0 10.83,1.06 15.21,3.16 4.37,2.11 7.73,5.12 10.09,8.98 2.35,3.88 3.53,8.32 3.53,13.26 0,7.52 -2.57,13.46 -7.72,17.79 -5.15,4.34 -12.28,6.52 -21.38,6.52l-13.86 0zm0 -12.82l14.13 0c4.17,0 7.38,-0.98 9.58,-2.95 2.2,-1.96 3.29,-4.78 3.29,-8.44 0,-3.77 -1.11,-6.81 -3.33,-9.12 -2.22,-2.32 -5.28,-3.52 -9.18,-3.59l-14.49 0 0 24.09z"/>
   <path class="fil1" d="M29.92 177.53c6.5,0.94 12.8,2 18.88,3.25 6.18,1.15 11.22,2.41 15.09,3.68 7.13,2.51 12.27,6.29 15.31,11.43 3.04,5.24 4.61,11.84 4.82,20.02 0.11,8.7 0.21,18.98 0.21,30.93 0.11,11.95 0.21,24.74 0.21,38.48 0.11,13.73 0.21,27.78 0.42,42.04 0.11,14.26 0.32,27.99 0.64,41.41 0.31,13.31 0.63,25.58 1.15,36.69 0.42,11.22 1.04,20.56 1.78,28.1 1.68,16.05 5.66,31.04 11.95,45.09 6.29,14.05 15.52,26.52 27.78,37.22 12.16,10.8 27.89,19.19 47.18,25.37 19.28,6.08 42.77,9.23 70.34,9.33 22.02,0.11 42.36,-2.4 61.23,-7.44 18.87,-5.03 35.54,-13.31 50.12,-24.95 14.57,-11.63 26.42,-27.15 35.54,-46.66 9.12,-19.6 14.88,-43.72 17.3,-72.55 1.25,-10.8 2.31,-23.17 3.14,-37.01 0.84,-13.84 1.58,-28.41 2.1,-43.72 0.64,-15.31 1.15,-30.51 1.58,-45.81 0.42,-15.2 0.94,-29.67 1.36,-43.3 0.42,-10.17 1.36,-18.35 2.83,-24.43 1.46,-6.18 3.78,-10.8 6.92,-14.05 3.25,-3.14 7.55,-5.45 12.9,-6.82 4.4,-1.25 8.91,-2.31 13.63,-3.14 4.61,-0.94 9.33,-2 14.05,-3.15 1.04,-1.04 1.78,-3.14 2.1,-6.29 0.31,-3.15 0.31,-6.4 0,-9.65 -0.32,-3.25 -1.05,-5.44 -2.1,-6.71 -4.09,0 -9.23,0.21 -15.52,0.53 -6.29,0.31 -14.26,0.52 -24.11,0.83 -9.75,0.32 -21.91,0.53 -36.48,0.53 -15.83,-0.11 -30.51,-0.42 -44.24,-0.94 -13.73,-0.53 -25.79,-0.84 -36.27,-0.94 -0.83,1.36 -1.47,3.67 -1.78,6.71 -0.42,3.04 -0.53,6.19 -0.32,9.23 0.11,3.04 0.63,5.35 1.47,6.71 7.33,1.26 14.26,2.41 20.76,3.46 6.5,1.05 12.16,2.21 16.98,3.47 6.82,1.36 12.17,3.77 15.94,6.92 3.88,3.25 6.51,7.65 8.18,13.11 1.58,5.55 2.62,12.48 2.94,20.86 0.63,8.18 1.15,17.92 1.47,29.14 0.31,11.33 0.52,23.49 0.63,36.38 0,13 0,26.1 -0.21,39.41 -0.21,13.21 -0.53,25.9 -0.94,38.06 -0.42,12.05 -0.94,22.96 -1.57,32.5 -1.68,22.64 -5.66,40.88 -11.85,54.83 -6.29,13.84 -14.05,24.42 -23.48,31.56 -9.34,7.23 -19.5,12.05 -30.51,14.58 -11.12,2.51 -22.23,3.67 -33.55,3.46 -20.96,-0.11 -38.58,-3.25 -52.84,-9.33 -14.37,-6.19 -25.58,-14.58 -33.76,-25.38 -8.18,-10.69 -13.41,-23.06 -15.94,-37.01 -1.46,-6.6 -2.61,-14.36 -3.56,-23.06 -0.94,-8.7 -1.68,-17.51 -2.1,-26.42 -0.43,-9.02 -0.64,-17.3 -0.64,-24.75 -0.21,-8.39 -0.31,-18.03 -0.42,-28.93 -0.11,-10.9 -0.21,-22.54 -0.32,-35.01 0,-12.48 0,-25.27 0.11,-38.37 0.1,-13.21 0.32,-26.21 0.63,-39.22 0.11,-9.96 1.68,-17.72 4.72,-23.17 2.94,-5.35 8.29,-9.01 16.05,-10.8 3.77,-0.94 8.28,-1.99 13.41,-3.14 5.14,-1.15 10.8,-2.21 16.78,-3.15 0.83,-1.47 1.36,-3.67 1.67,-6.82 0.32,-3.25 0.32,-6.29 0,-9.43 -0.31,-3.04 -0.83,-5.25 -1.67,-6.4 -12.38,0.1 -26.64,0.42 -42.57,0.94 -15.93,0.53 -32.81,0.83 -50.53,0.94 -11.43,0 -23.06,-0.21 -34.8,-0.53 -11.74,-0.32 -22.75,-0.63 -33.13,-0.83 -10.38,-0.32 -19.19,-0.53 -26.42,-0.53 -0.84,1.15 -1.37,3.36 -1.68,6.61 -0.32,3.14 -0.43,6.29 -0.21,9.43 0.21,3.15 0.63,5.36 1.25,6.61z"/>
   <path class="fil1" d="M485.34 517.84c-0.84,1.26 -1.36,3.46 -1.68,6.61 -0.32,3.14 -0.32,6.4 0,9.65 0.32,3.25 0.83,5.55 1.68,7.02 3.87,-0.21 8.91,-0.53 14.88,-0.74 5.98,-0.32 13.52,-0.64 22.43,-0.84 8.91,-0.21 19.82,-0.31 32.5,-0.31 14.68,0 27.68,0.31 39.01,0.74 11.32,0.42 21.81,0.83 31.45,1.15 1.05,-1.47 1.79,-3.78 2.31,-7.02 0.52,-3.25 0.73,-6.51 0.63,-9.65 -0.11,-3.15 -0.42,-5.35 -1.05,-6.61 -3.46,-0.42 -6.39,-0.74 -8.59,-1.15 -2.21,-0.32 -4.19,-0.63 -5.87,-1.04 -1.78,-0.43 -3.67,-0.94 -5.66,-1.58 -2.93,-0.74 -5.35,-1.89 -7.23,-3.35 -1.89,-1.37 -3.25,-3.47 -4.19,-6.3 -1.04,-2.82 -1.57,-6.81 -1.78,-11.73 -0.32,-8.91 -0.53,-19.19 -0.74,-30.83 -0.21,-11.63 -0.32,-23.9 -0.42,-36.79 0,-12.9 -0.11,-25.58 -0.11,-38.16 0,-12.59 0,-24.32 0,-35.12 0,-2.94 0.42,-5.56 1.36,-8.08 0.94,-2.51 2.41,-4.4 4.3,-5.76 3.67,-2.73 7.55,-4.93 11.84,-6.72 4.19,-1.78 8.39,-3.14 12.59,-3.97 4.19,-0.84 7.96,-1.26 11.43,-1.26 6.61,0 12.47,0.63 17.61,1.99 5.15,1.47 9.76,3.68 13.84,6.82 5.36,3.98 9.44,8.81 12.48,14.58 2.93,5.76 4.82,11.33 5.76,16.88 0.84,5.14 1.58,11.95 2,20.44 0.53,8.4 0.83,17.62 0.94,27.79 0.1,10.06 0.21,20.23 0.1,30.4 -0.1,10.06 -0.21,19.5 -0.42,28.1 -0.21,8.59 -0.42,15.52 -0.74,20.96 0.11,5.35 -0.63,9.65 -2.2,12.8 -1.47,3.25 -4.09,5.44 -7.87,6.71 -1.89,0.63 -4.61,1.36 -8.18,2.21 -3.46,0.83 -7.44,1.57 -11.95,2.2 -0.83,1.26 -1.25,3.46 -1.36,6.61 -0.1,3.14 0,6.4 0.21,9.65 0.32,3.25 0.74,5.55 1.15,7.02 6.61,-0.21 13.01,-0.53 19.19,-0.74 6.19,-0.32 13.01,-0.64 20.66,-0.84 7.55,-0.21 16.77,-0.31 27.47,-0.31 13.63,0 25.06,0.21 34.49,0.52 9.44,0.32 17.09,0.53 23.07,0.84 5.97,0.32 10.48,0.53 13.52,0.53 1.05,-1.37 1.99,-3.68 2.62,-6.93 0.74,-3.14 1.15,-6.29 1.25,-9.43 0.11,-3.26 -0.1,-5.56 -0.73,-6.93 -6.51,-0.83 -12.38,-1.99 -17.41,-3.25 -5.14,-1.36 -10.06,-3.46 -14.67,-6.19 -1.58,-0.94 -2.83,-2.51 -3.68,-4.5 -0.94,-2 -1.36,-4.3 -1.36,-6.82 -0.1,-5.35 -0.32,-12.16 -0.32,-20.55 -0.1,-8.4 -0.21,-17.73 -0.21,-28 -0.1,-10.16 -0.1,-20.66 -0.1,-31.35 0,-10.69 0,-20.96 0,-30.82 0.1,-14.89 -1.15,-28.72 -3.78,-41.41 -2.62,-12.8 -7.02,-23.91 -13.21,-33.44 -7.44,-10.8 -16.56,-19.09 -27.15,-25.06 -10.69,-5.87 -23.17,-8.81 -37.64,-8.91 -7.33,0 -15.62,1.68 -24.53,4.93 -9.01,3.25 -18.45,7.76 -28.31,13.63 -9.75,5.76 -19.6,12.58 -29.57,20.44 -0.42,0.32 -1.04,0.32 -1.78,0 -0.83,-0.31 -1.26,-0.94 -1.36,-1.89l0 -34.6c-0.11,-0.94 -0.42,-1.89 -1.15,-2.72 -0.64,-0.94 -1.36,-1.68 -2,-2.31 -4.93,2.4 -11.11,4.93 -18.55,7.54 -7.34,2.73 -15.42,5.25 -24.33,7.76 -8.8,2.51 -17.92,4.72 -27.25,6.72 -9.33,1.99 -18.45,3.46 -27.36,4.4 -0.63,1.15 -1.26,2.93 -1.79,5.44 -0.52,2.52 -0.93,5.14 -1.25,7.76 -0.21,2.62 -0.32,4.72 -0.11,6.29 7.87,2.94 14.05,5.77 18.35,8.49 4.4,2.83 7.55,5.45 9.44,7.86 1.89,2.52 3.14,4.83 3.67,6.93 0.21,2.83 0.32,6.71 0.42,11.63 0.11,4.93 0.21,10.48 0.21,16.56 0,6.08 0,12.16 0,18.35 0,8.39 0,17.41 0,26.95 0,9.54 -0.1,18.87 -0.1,28.2 -0.11,9.23 -0.21,17.73 -0.43,25.48 -0.21,7.65 -0.42,13.94 -0.73,18.76 -0.22,6.08 -1.37,11.22 -3.26,15.42 -1.99,4.19 -5.35,6.81 -9.96,7.86 -3.36,1.26 -6.71,2.1 -9.86,2.72 -3.25,0.53 -6.92,1.15 -10.9,1.68z"/>
   <path class="fil1" d="M967.82 517.84c-6.51,-0.94 -11.64,-1.89 -15.52,-2.83 -3.88,-0.94 -7.23,-1.89 -10.27,-2.83 -4.09,-1.15 -7.13,-3.56 -9.02,-7.33 -1.99,-3.68 -2.93,-9.44 -2.93,-17.2 -0.21,-9.75 -0.32,-20.44 -0.42,-32.18 -0.11,-11.63 -0.21,-23.59 -0.21,-35.65 0,-12.16 0,-23.7 0,-34.71 0,-12.26 0.1,-24.84 0.21,-37.74 0.1,-12.8 0.1,-25.27 0.21,-37.43 0.1,-12.06 0.21,-23.07 0.21,-33.03 -6.08,2.41 -13.11,4.61 -20.96,6.71 -7.76,2 -15.94,3.88 -24.32,5.55 -8.4,1.68 -16.46,3.15 -24.22,4.41 -7.86,1.15 -14.78,2.1 -20.86,2.82 -6.18,0.74 -10.8,1.16 -14.05,1.26 -0.83,0.94 -1.57,2.83 -2.2,5.45 -0.64,2.72 -0.94,5.55 -1.05,8.39 -0.1,2.83 0.11,4.93 0.74,6.29 8.39,3.04 14.67,5.76 18.87,8.08 4.3,2.2 7.45,4.61 9.44,7.02 1.89,1.99 3.15,4.29 3.98,7.12 0.74,2.73 1.05,5.35 1.05,7.97l0 57.24c0,7.97 0,16.05 0,24.32 0,8.29 0,16.25 -0.11,23.91 0,7.66 -0.11,14.58 -0.11,20.66 -0.1,6.19 -0.21,11.12 -0.42,14.78 -0.21,7.44 -0.94,12.9 -2.31,16.35 -1.36,3.46 -4.08,5.76 -8.39,6.92 -3.36,1.26 -7.02,2.21 -10.9,3.04 -3.98,0.84 -8.7,1.68 -14.27,2.62 -1.04,1.26 -1.57,3.46 -1.78,6.72 -0.21,3.25 -0.1,6.6 0.21,9.85 0.42,3.26 0.94,5.45 1.57,6.72 6.93,-0.11 16.36,-0.42 28.21,-0.94 11.74,-0.53 25.89,-0.84 42.25,-0.94 20.24,0.1 36.38,0.42 48.23,0.94 11.85,0.53 20.55,0.83 26,0.94 1.26,-1.26 2.21,-3.46 2.94,-6.72 0.63,-3.25 1.04,-6.6 1.04,-9.85 0.11,-3.26 -0.21,-5.45 -0.83,-6.72z"/>
   <path class="fil1" d="M1025.05 421.6c-1.04,-0.42 -2.72,-0.52 -5.03,-0.21 -2.41,0.32 -4.93,0.84 -7.66,1.58 -2.72,0.83 -5.14,1.78 -7.23,2.93 -2.1,1.05 -3.46,2.1 -3.98,3.25 0.21,4.51 0.74,10.59 1.79,18.03 0.94,7.55 2.2,15.62 3.78,24.32 1.57,8.81 3.25,17.2 5.14,25.38 1.78,8.18 3.56,15.3 5.35,21.17 1.78,5.98 3.35,9.86 4.72,11.74 5.55,2.83 13.2,5.87 23.06,9.02 9.75,3.14 21.07,5.86 33.76,8.18 12.79,2.31 26.31,3.46 40.68,3.56 24.11,-0.1 45.4,-3.35 63.96,-9.64 18.45,-6.3 34.07,-15.1 46.65,-26.11 12.69,-11.11 22.23,-23.91 28.73,-38.26 6.5,-14.48 9.75,-29.78 9.75,-46.13 0,-15.2 -2.51,-28.62 -7.44,-40.26 -4.93,-11.64 -12.16,-22.23 -21.81,-31.66 -9.65,-9.44 -21.49,-18.35 -35.54,-26.84 -8.7,-5.14 -17.09,-9.97 -25.06,-14.48 -8.08,-4.5 -16.05,-9.01 -24.01,-13.62 -8.07,-4.62 -16.45,-9.76 -25.16,-15.31 -8.8,-5.55 -16.25,-11.33 -22.34,-17.3 -6.08,-5.87 -10.69,-12.48 -13.84,-19.71 -3.14,-7.33 -4.71,-15.73 -4.71,-25.27 0,-9.96 2.31,-19.19 6.71,-27.68 4.4,-8.39 10.9,-15.2 19.29,-20.34 8.39,-5.24 18.66,-7.86 30.61,-7.97 9.75,-0.1 18.55,0.94 26.63,3.15 8.08,2.1 15.52,5.66 22.43,10.69 4.83,3.68 8.91,8.29 12.37,13.95 3.47,5.55 6.4,12.68 8.81,21.17 2.51,8.49 4.61,19.09 6.5,31.56 0.74,0.64 2.1,1.05 4.29,1.37 2.11,0.31 4.51,0.42 7.13,0.31 2.62,0 5.04,-0.31 7.23,-0.83 2.21,-0.42 3.78,-1.15 4.61,-2.1 1.05,-18.45 2.52,-35.54 4.41,-51.48 1.99,-15.84 4.08,-29.57 6.29,-40.99 -10.06,-1.15 -20.24,-2.62 -30.3,-4.3 -10.06,-1.78 -21.17,-3.35 -33.13,-4.82 -11.95,-1.36 -25.79,-2.1 -41.62,-2.21 -18.03,0 -35.02,2.41 -50.85,7.34 -15.94,4.82 -29.99,12.05 -42.04,21.6 -12.17,9.54 -21.71,21.28 -28.62,35.22 -6.93,14.05 -10.48,30.19 -10.59,48.44 0.11,16.25 2.72,30.51 7.97,42.88 5.25,12.37 12.37,23.38 21.49,33.03 9.12,9.54 19.6,18.45 31.35,26.42 11.74,8.07 24.22,15.83 37.33,23.49 14.99,8.91 27.46,16.88 37.32,24.11 9.76,7.12 17.51,13.94 23.07,20.44 5.55,6.4 9.54,13.01 11.84,19.71 2.21,6.61 3.36,13.94 3.25,21.91 -0.21,11.95 -2.93,21.81 -8.39,29.68 -5.45,7.75 -12.48,13.62 -21.17,17.4 -8.6,3.88 -17.82,5.77 -27.68,5.77 -6.61,0 -13.31,-0.53 -20.24,-1.79 -6.92,-1.15 -13.62,-3.04 -20.13,-5.66 -6.61,-2.61 -12.58,-5.97 -18.13,-10.16 -11.22,-8.08 -20.97,-18.98 -29.36,-32.61 -8.28,-13.73 -15.73,-30.72 -22.23,-51.06z"/>
   <path class="fil1" d="M1463.49 277.55c-17.19,0.21 -33.33,2.62 -48.54,7.44 -15.2,4.82 -28.31,10.9 -39.52,18.35 -11.43,7.33 -21.28,16.35 -29.57,26.84 -8.39,10.59 -14.88,22.54 -19.39,35.96 -4.61,13.53 -6.93,28.21 -7.02,44.14 0,18.34 2.51,35.75 7.65,52.1 5.25,16.35 13.21,30.82 24.11,43.51 10.91,12.69 24.85,22.54 42.05,29.78 17.08,7.23 37.53,11.01 61.43,11.11 9.96,-0.1 20.13,-1.25 30.51,-3.56 10.37,-2.31 20.23,-5.35 29.56,-9.02 9.33,-3.67 17.41,-7.65 24.22,-11.95 18.13,-11.43 32.18,-26.73 42.36,-46.02 10.16,-19.29 15.3,-41.94 15.52,-67.83 0,-18.35 -2.94,-35.44 -8.81,-51.27 -5.87,-15.73 -14.47,-29.57 -25.79,-41.52 -11.32,-11.95 -25.27,-21.17 -41.83,-27.89 -16.56,-6.71 -35.54,-10.06 -56.93,-10.16zm-16.98 27.68c14.58,0.1 26.95,5.03 37.22,14.77 10.27,9.86 18.24,23.81 23.7,41.84 5.44,18.13 8.28,39.73 8.28,64.79 0,22.75 -1.89,40.88 -5.66,54.31 -3.77,13.41 -9.43,23.27 -16.98,29.35 -3.25,2.83 -7.02,5.04 -11.43,6.51 -4.4,1.57 -8.91,2.31 -13.73,2.31 -13.32,0 -25.17,-4.93 -35.55,-14.68 -10.37,-9.64 -18.55,-23.9 -24.53,-42.77 -5.97,-18.87 -9.01,-42.15 -9.12,-69.61 0,-15.63 1.26,-28.83 3.57,-39.52 2.21,-10.59 5.45,-19.29 9.44,-25.9 4.08,-6.61 8.8,-11.63 14.05,-15.09 3.14,-1.89 6.6,-3.47 10.16,-4.62 3.57,-1.04 7.13,-1.67 10.59,-1.67z"/>
   <path class="fil1" d="M1632.08 541.12c5.24,-0.11 13.73,-0.43 25.47,-0.94 11.84,-0.53 26,-0.84 42.45,-0.94 22.23,0.1 39.52,0.42 51.9,0.94 12.47,0.52 20.96,0.83 25.47,0.94 1.04,-1.58 1.99,-3.98 2.62,-7.13 0.73,-3.14 1.15,-6.29 1.25,-9.44 0.11,-3.04 -0.1,-5.35 -0.74,-6.71 -3.78,-0.63 -6.92,-1.15 -9.54,-1.68 -2.62,-0.52 -5.14,-1.04 -7.34,-1.68 -2.2,-0.52 -4.61,-1.04 -7.02,-1.67 -3.87,-1.15 -6.81,-2.73 -8.8,-4.72 -1.89,-2 -3.25,-4.62 -3.98,-7.97 -0.74,-3.36 -1.36,-7.65 -1.68,-13.11 -0.83,-11.85 -1.36,-29.88 -1.36,-54.1 0,-24.22 0,-54.83 0.11,-91.84 0.1,-14.78 0.21,-29.88 0.31,-45.19 0,-15.41 0,-30.4 0,-44.87 0,-14.47 0,-27.68 0,-39.73 0.11,-11.95 0.21,-22.02 0.32,-29.99 0.21,-12.48 0.83,-22.75 1.78,-31.03 0.94,-8.18 2.73,-14.99 5.14,-20.56 0.21,-0.94 0,-1.99 -0.42,-3.46 -0.53,-1.36 -1.25,-2.62 -2.1,-3.78 -0.83,-1.25 -1.68,-1.89 -2.51,-2.2 -5.66,2.4 -13.21,4.82 -22.64,7.23 -9.44,2.51 -19.71,4.93 -30.93,7.12 -11.12,2.31 -22.02,4.3 -32.82,6.08 -10.8,1.79 -20.34,3.15 -28.72,4.09 -1.05,1.15 -1.79,3.14 -2.21,5.87 -0.53,2.83 -0.63,5.55 -0.32,8.28 0.22,2.83 0.84,4.83 1.89,5.98 6.19,0.63 11.95,1.36 17.52,2.31 5.44,0.94 9.75,2.1 12.68,3.36 3.36,1.36 5.77,3.67 7.02,6.71 1.26,3.15 1.89,6.4 1.79,9.65 0.94,13.84 1.46,33.13 1.68,57.97 0.21,24.85 0.21,55.25 0.21,91.11 0,14.88 0,29.99 0,45.29 0,15.31 -0.11,29.78 -0.11,43.62 -0.1,13.73 -0.21,25.79 -0.42,36.17 -0.21,10.38 -0.42,18.25 -0.74,23.39 -0.21,7.02 -1.04,12.79 -2.51,17.51 -1.47,4.72 -4.19,7.86 -8.18,9.54 -3.98,1.57 -8.08,2.83 -12.06,3.87 -4.08,0.94 -8.39,1.79 -13.11,2.41 -1.04,1.57 -1.57,3.98 -1.68,7.13 -0.1,3.14 0.11,6.29 0.64,9.43 0.42,3.04 1.04,5.35 1.68,6.72z"/>
   <path class="fil2" d="M799.94 225.66c2.79,5.36 21.98,29 26.86,33.08 1.63,-4.82 15.36,-41.7 14.32,-47.11 -14.95,5.65 -28.58,9.05 -41.17,14.04zm204.36 -153.69l1.25 -0.81c-5.27,-2.15 -10.36,-0.85 -15.73,-0.7l-46.97 2.05 34.86 50.72 26.58 -51.26zm-90.49 59.33c-5.7,2.27 -11.55,5.21 -17.42,7.73 -4.44,1.92 -14,5.66 -17.73,8.48l29.05 19.94 6.09 -36.15z"/>
   <path class="fil3" d="M840.15 260.78c3.19,-2.53 17.91,-5.62 23.04,-6.57 3.4,-0.62 1.11,-0.37 2.72,-0.07 1.36,-0.79 1.95,-1.39 3.76,-2.31l-21.21 -36.46 -15.03 45.45c3.75,0.21 3.92,-0.16 6.73,-0.03zm170.19 -87.92l-0.42 -1.68c-2.45,-0.16 -0.98,-0.1 -2.9,-0.05 -6.57,0.19 -8.6,2.42 -14.52,3.41 -6.78,1.13 -10.65,3.5 -16.06,4.19l33.12 28.48 0.77 -34.35zm-6.79 -108.76l-36.63 -45.92 -24.71 46.62 45.46 -1.05c4.2,-0.23 12.37,-1.06 15.89,0.36zm-237.1 189.44c-3.8,-6.59 -6.63,-9.63 -11.49,-16.11 -13.11,-17.47 -11.27,-18.17 -19.73,-15.41 -6.98,2.29 -20.67,5.55 -24.95,8.41l56.17 23.11zm107.25 -112.13c4.36,-0.93 31.9,-13.43 35.16,-15.93 -4.24,-1.47 -40.73,-15.14 -45.11,-14.73l9.95 30.66z"/>
   <path class="fil4" d="M751.64 221.31c1.97,5.49 20.03,27.61 25.09,33.3 3.35,-5.33 10.88,-22.76 11.28,-28.05l-36.36 -5.26zm202.4 -201.91c-2.73,3.07 -7.21,3.98 -11.5,5.6 -4.01,1.53 -8.23,3.17 -12.5,4.98 -4.37,1.85 -21.08,9.1 -23.87,8.97 -2.99,2.17 -29.33,12.87 -35.28,15.46l63.41 10.64 24.53 -45.87c-1.46,0.13 -2.83,0.37 -4.8,0.22zm55.29 130.08l-1.19 -58.29c-0.2,-5.62 -0.93,-5 0.66,-8.75 -1.82,-0.1 -0.99,-1.93 -4.67,3.93l-21.97 43.25 27.01 27.19 0.16 -7.33zm-94.98 20.24c4.06,0.36 38.3,3.56 42.24,3.16 2.14,-0.21 0.88,0.05 2.81,-0.63l-38.6 -39.15 -6.45 36.61zm-77.63 -18.78c-0.03,2.82 10.53,42.1 11.49,44.3l18.36 -44.83 -29.85 0.53zm76.39 75.42l0.9 -0.23c0.12,-3.2 2.14,-0.68 -2.08,-2.62l-11.68 -2.31c-4.83,-1.01 -9.9,-2.09 -14.93,-3.12 -7.91,-1.62 -23.72,-5.96 -30.39,-6.1l20.54 37.76 37.65 -23.37z"/>
   <path class="fil5" d="M819.81 262.03l-25.45 -31.46 -11.58 28.03 37.04 3.43zm96.62 -142.04l15.23 -47.88 -59.31 -10.33 44.07 58.21zm89.04 43.97l-25.34 -26.63c-1.76,5.06 -2.72,12.8 -3.9,18.23 -0.62,2.83 -1.04,5.34 -1.63,8.26l-1.08 7.52c0.16,-0.11 0.01,0.57 0.04,0.84l31.91 -8.23zm-44.73 16.46c-15.66,-1.36 -29.68,-2.73 -45.48,-3.3l2.45 9.29c1.92,7.29 6.47,24.22 8.92,29.43l34.1 -35.42zm-122.29 -37.6l-0.03 1.73c8.88,-1.91 19.06,-0.29 28.1,-1.57l-0.86 -4.1c-0.12,-0.42 -0.87,-2.81 -1.18,-3.72 -1.64,-4.86 -5.86,-19.49 -7.5,-22.3l-18.52 29.96z"/>
   <path class="fil6" d="M798.68 218.35c0.23,-0.02 0.6,-0.05 0.85,-0.09 0.25,-0.03 0.58,-0.08 0.82,-0.12l16.44 -5.06c4.4,-1.42 15.87,-4.89 19.18,-6.74l-36.69 -12.84 -2.39 24.97 1.79 -0.13zm29.51 -148.85c-2.15,2.2 -3.26,2.37 -6.96,3.82 -2.53,0.99 -5.05,1.84 -7.3,2.96l1.8 2.85c7.01,0.56 29.84,17.04 38.51,18.66l-0.66 -36.79 -25.39 8.5zm119.26 54.79c7.88,0.66 15.79,1.24 23.29,1.56l-33.53 -49.13 -13.94 45.03c5.88,1.73 18.43,2.07 24.18,2.54zm-44.63 47.73l-29.31 -20.08c-1.23,1.89 -18.66,42.17 -18.36,47.27l47.67 -27.19z"/>
   <path class="fil7" d="M754.74 214.26c6.39,1.82 19.24,3.12 27.51,4.61 1.28,0.23 3,0.62 4.07,0.71l4.06 -0.28 1.26 -24.06 -36.91 19.03zm231.2 -206.68c-4.82,2.45 -10.03,3.42 -13.81,6.02l34.79 42.43 0.79 -7.44c-1.22,-3.23 -0.68,-8.34 -0.67,-11.22l-1.3 -37.37 -19.81 7.57zm-124.62 51.79c-1.7,6.27 -0.35,37.9 0.39,42.42l43.21 15.24c-4.02,-8.93 -42.11,-56.49 -43.6,-57.66zm104.91 110.52l7.72 -36.32 -39.68 -3.82 -6.12 0.53 38.08 39.61zm-137.16 -15.45l-0.18 1.71 -26.91 30.93 39.98 14.13c-1.92,-8.82 -9.34,-42.74 -12.9,-46.77zm28.92 51c9.91,2.09 55.13,12.88 61.36,12.33l-2.88 -10.49c-1.53,-5.62 -6.5,-25.61 -8.81,-29.06 -6.49,3.51 -47.21,24.86 -49.67,27.22z"/>
   <g>
    <path class="fil1" d="M56.47 814.14c-0.62,0.88 -1.47,1.86 -2.55,2.92 -1.09,1.08 -2.51,2.07 -4.28,3.01 -1.77,0.93 -3.93,1.72 -6.51,2.36 -2.58,0.65 -5.66,0.97 -9.26,0.97 -3.89,0 -7.47,-0.69 -10.74,-2.07 -3.25,-1.37 -6.06,-3.35 -8.42,-5.94 -2.35,-2.59 -4.19,-5.77 -5.51,-9.53 -1.31,-3.76 -1.98,-8.01 -1.98,-12.79l0 -5.01c0,-4.76 0.58,-9.01 1.7,-12.76 1.12,-3.75 2.78,-6.92 4.96,-9.53 2.19,-2.6 4.87,-4.59 8.06,-5.97 3.19,-1.36 6.85,-2.06 10.96,-2.06 3.66,0 6.86,0.49 9.62,1.47 2.74,0.97 5.09,2.33 7.02,4.07 1.93,1.76 3.46,3.83 4.6,6.22 1.13,2.39 1.92,5.02 2.33,7.85l-8.44 0c-0.32,-1.73 -0.82,-3.36 -1.51,-4.89 -0.7,-1.54 -1.63,-2.89 -2.83,-4.04 -1.2,-1.15 -2.68,-2.07 -4.43,-2.74 -1.76,-0.68 -3.86,-1 -6.32,-1 -2.98,0 -5.56,0.55 -7.72,1.62 -2.17,1.08 -3.95,2.63 -5.36,4.66 -1.41,2.01 -2.44,4.45 -3.13,7.32 -0.7,2.86 -1.03,6.1 -1.03,9.69l0 5.1c0,3.69 0.43,6.97 1.31,9.87 0.87,2.91 2.12,5.37 3.71,7.38 1.6,2.01 3.52,3.56 5.74,4.6 2.25,1.05 4.72,1.59 7.45,1.59 2.28,0 4.2,-0.17 5.8,-0.47 1.59,-0.31 2.94,-0.69 4.03,-1.13 1.1,-0.47 1.99,-0.96 2.66,-1.5 0.68,-0.54 1.23,-1.05 1.67,-1.51l0 -14.35 -14.78 0 0 -6.85 23.17 0 0 23.42zm13.35 -15.79c0,-3.46 0.5,-6.65 1.51,-9.58 1,-2.95 2.44,-5.5 4.3,-7.67 1.86,-2.16 4.11,-3.85 6.77,-5.08 2.66,-1.24 5.64,-1.86 8.95,-1.86 3.38,0 6.39,0.62 9.07,1.86 2.67,1.23 4.95,2.92 6.83,5.08 1.87,2.17 3.3,4.72 4.29,7.67 0.99,2.93 1.49,6.12 1.49,9.58l0 0.96c0,3.46 -0.5,6.65 -1.49,9.59 -0.99,2.95 -2.42,5.49 -4.29,7.63 -1.88,2.16 -4.15,3.84 -6.81,5.05 -2.66,1.21 -5.65,1.83 -8.99,1.83 -3.35,0 -6.34,-0.62 -9,-1.83 -2.65,-1.21 -4.93,-2.89 -6.81,-5.05 -1.87,-2.14 -3.31,-4.68 -4.31,-7.63 -1.01,-2.94 -1.51,-6.13 -1.51,-9.59l0 -0.96zm8.16 0.96c0,2.36 0.28,4.61 0.82,6.71 0.56,2.12 1.39,3.97 2.53,5.55 1.12,1.59 2.53,2.86 4.21,3.8 1.67,0.94 3.65,1.41 5.9,1.41 2.22,0 4.17,-0.47 5.88,-1.41 1.69,-0.93 3.1,-2.21 4.21,-3.8 1.1,-1.58 1.95,-3.44 2.51,-5.55 0.57,-2.1 0.85,-4.34 0.85,-6.71l0 -0.96c0,-2.34 -0.29,-4.56 -0.85,-6.69 -0.57,-2.13 -1.42,-3.98 -2.55,-5.57 -1.12,-1.6 -2.52,-2.88 -4.22,-3.83 -1.7,-0.93 -3.68,-1.42 -5.93,-1.42 -2.22,0 -4.16,0.49 -5.83,1.42 -1.67,0.94 -3.06,2.23 -4.18,3.83 -1.14,1.59 -1.98,3.45 -2.53,5.57 -0.55,2.13 -0.82,4.34 -0.82,6.69l0 0.96zm45.83 -0.96c0,-3.46 0.49,-6.65 1.51,-9.58 1,-2.95 2.44,-5.5 4.29,-7.67 1.86,-2.16 4.12,-3.85 6.78,-5.08 2.66,-1.24 5.64,-1.86 8.95,-1.86 3.37,0 6.38,0.62 9.06,1.86 2.68,1.23 4.96,2.92 6.84,5.08 1.87,2.17 3.29,4.72 4.29,7.67 0.99,2.93 1.48,6.12 1.48,9.58l0 0.96c0,3.46 -0.49,6.65 -1.48,9.59 -1,2.95 -2.42,5.49 -4.29,7.63 -1.88,2.16 -4.15,3.84 -6.81,5.05 -2.66,1.21 -5.66,1.83 -9,1.83 -3.34,0 -6.33,-0.62 -9,-1.83 -2.65,-1.21 -4.93,-2.89 -6.8,-5.05 -1.87,-2.14 -3.31,-4.68 -4.31,-7.63 -1.02,-2.94 -1.51,-6.13 -1.51,-9.59l0 -0.96zm8.16 0.96c0,2.36 0.27,4.61 0.82,6.71 0.56,2.12 1.39,3.97 2.53,5.55 1.12,1.59 2.53,2.86 4.2,3.8 1.68,0.94 3.66,1.41 5.9,1.41 2.22,0 4.18,-0.47 5.89,-1.41 1.69,-0.93 3.1,-2.21 4.2,-3.8 1.11,-1.58 1.95,-3.44 2.51,-5.55 0.58,-2.1 0.85,-4.34 0.85,-6.71l0 -0.96c0,-2.34 -0.28,-4.56 -0.85,-6.69 -0.57,-2.13 -1.42,-3.98 -2.54,-5.57 -1.12,-1.6 -2.52,-2.88 -4.22,-3.83 -1.71,-0.93 -3.69,-1.42 -5.93,-1.42 -2.22,0 -4.16,0.49 -5.84,1.42 -1.66,0.94 -3.05,2.23 -4.17,3.83 -1.14,1.59 -1.98,3.45 -2.53,5.57 -0.56,2.13 -0.82,4.34 -0.82,6.69l0 0.96zm45.99 -0.91c0,-3.64 0.45,-6.94 1.35,-9.9 0.87,-2.97 2.16,-5.51 3.79,-7.64 1.63,-2.12 3.61,-3.77 5.9,-4.93 2.29,-1.17 4.87,-1.77 7.7,-1.77 2.9,0 5.43,0.5 7.59,1.48 2.17,0.97 4.04,2.38 5.61,4.22l0 -24.74 8.12 0 0 67.39 -7.46 0 -0.39 -5.09c-1.59,1.93 -3.49,3.41 -5.7,4.43 -2.24,1.02 -4.84,1.54 -7.86,1.54 -2.77,0 -5.33,-0.6 -7.61,-1.81 -2.3,-1.2 -4.27,-2.86 -5.9,-5.02 -1.63,-2.16 -2.91,-4.69 -3.79,-7.64 -0.9,-2.93 -1.35,-6.14 -1.35,-9.63l0 -0.91zm8.12 0.91c0,2.36 0.24,4.6 0.74,6.7 0.48,2.1 1.22,3.9 2.26,5.46 1.02,1.54 2.32,2.77 3.89,3.69 1.59,0.89 3.48,1.36 5.66,1.36 1.44,0 2.72,-0.18 3.86,-0.51 1.14,-0.35 2.18,-0.81 3.1,-1.43 0.91,-0.61 1.74,-1.34 2.45,-2.2 0.71,-0.84 1.33,-1.79 1.86,-2.8l0 -21.81c-0.53,-0.97 -1.13,-1.86 -1.84,-2.68 -0.71,-0.82 -1.51,-1.52 -2.44,-2.13 -0.91,-0.6 -1.95,-1.06 -3.08,-1.4 -1.14,-0.34 -2.41,-0.52 -3.83,-0.52 -2.22,0 -4.13,0.47 -5.72,1.4 -1.6,0.91 -2.9,2.17 -3.92,3.74 -1.03,1.59 -1.78,3.42 -2.26,5.51 -0.5,2.1 -0.74,4.31 -0.74,6.7l0 0.91zm114.92 -33.74l-20.54 0 0 56.95 -8.37 0 0 -56.95 -20.49 0 0 -6.94 49.39 0 0 6.94zm19.07 15.23c1.69,-2.09 3.73,-3.71 6.09,-4.87 2.38,-1.17 5.02,-1.77 7.96,-1.77 2.31,0 4.4,0.32 6.27,0.94 1.88,0.63 3.46,1.65 4.78,3.04 1.32,1.38 2.33,3.18 3.06,5.35 0.7,2.19 1.06,4.82 1.06,7.93l0 31.1 -8.12 0 0 -31.2c0,-1.84 -0.2,-3.41 -0.62,-4.71 -0.41,-1.3 -1.02,-2.37 -1.82,-3.18 -0.8,-0.82 -1.79,-1.42 -2.98,-1.8 -1.19,-0.39 -2.55,-0.59 -4.1,-0.59 -2.63,0 -4.94,0.71 -6.94,2.12 -1.99,1.41 -3.55,3.25 -4.65,5.52l0 33.83 -8.12 0 0 -67.39 8.12 0 0 25.67zm41.97 17.55c0,-3.46 0.5,-6.65 1.52,-9.58 1,-2.95 2.43,-5.5 4.29,-7.67 1.86,-2.16 4.12,-3.85 6.78,-5.08 2.66,-1.24 5.64,-1.86 8.95,-1.86 3.37,0 6.38,0.62 9.06,1.86 2.68,1.23 4.96,2.92 6.83,5.08 1.88,2.17 3.3,4.72 4.3,7.67 0.98,2.93 1.48,6.12 1.48,9.58l0 0.96c0,3.46 -0.5,6.65 -1.48,9.59 -1,2.95 -2.42,5.49 -4.3,7.63 -1.87,2.16 -4.14,3.84 -6.8,5.05 -2.66,1.21 -5.66,1.83 -9,1.83 -3.34,0 -6.34,-0.62 -9,-1.83 -2.65,-1.21 -4.93,-2.89 -6.8,-5.05 -1.88,-2.14 -3.31,-4.68 -4.31,-7.63 -1.02,-2.94 -1.52,-6.13 -1.52,-9.59l0 -0.96zm8.17 0.96c0,2.36 0.27,4.61 0.82,6.71 0.56,2.12 1.39,3.97 2.53,5.55 1.12,1.59 2.52,2.86 4.2,3.8 1.68,0.94 3.66,1.41 5.9,1.41 2.22,0 4.18,-0.47 5.88,-1.41 1.7,-0.93 3.11,-2.21 4.21,-3.8 1.11,-1.58 1.95,-3.44 2.51,-5.55 0.58,-2.1 0.85,-4.34 0.85,-6.71l0 -0.96c0,-2.34 -0.28,-4.56 -0.85,-6.69 -0.57,-2.13 -1.42,-3.98 -2.54,-5.57 -1.12,-1.6 -2.53,-2.88 -4.22,-3.83 -1.71,-0.93 -3.69,-1.42 -5.93,-1.42 -2.22,0 -4.16,0.49 -5.84,1.42 -1.66,0.94 -3.05,2.23 -4.17,3.83 -1.14,1.59 -1.98,3.45 -2.53,5.57 -0.56,2.13 -0.82,4.34 -0.82,6.69l0 0.96zm77.28 18.53c-1.49,1.75 -3.37,3.11 -5.66,4.08 -2.28,0.99 -5.04,1.48 -8.26,1.48 -2.33,0 -4.44,-0.33 -6.35,-0.98 -1.9,-0.67 -3.55,-1.71 -4.91,-3.12 -1.38,-1.42 -2.44,-3.25 -3.19,-5.49 -0.76,-2.24 -1.12,-4.93 -1.12,-8.09l0 -30.67 8.12 0 0 30.76c0,2.13 0.25,3.89 0.75,5.29 0.5,1.39 1.15,2.48 1.98,3.3 0.82,0.79 1.75,1.35 2.81,1.66 1.05,0.3 2.13,0.47 3.24,0.47 3.31,0 5.96,-0.63 7.97,-1.89 2.01,-1.26 3.48,-2.95 4.42,-5.05l0 -34.54 8.12 0 0 47.47 -7.73 0 -0.18 -4.68zm21.03 -19.44c0,-3.64 0.44,-6.94 1.3,-9.9 0.85,-2.97 2.1,-5.51 3.74,-7.64 1.61,-2.12 3.58,-3.77 5.89,-4.93 2.31,-1.17 4.92,-1.77 7.81,-1.77 3.01,0 5.63,0.54 7.86,1.59 2.22,1.04 4.12,2.57 5.71,4.56l0.39 -5.27 7.41 0 0 46.47c0,3.13 -0.5,5.92 -1.47,8.36 -0.98,2.44 -2.36,4.51 -4.14,6.19 -1.79,1.68 -3.91,2.96 -6.37,3.84 -2.45,0.88 -5.19,1.32 -8.16,1.32 -1.23,0 -2.64,-0.14 -4.23,-0.43 -1.6,-0.27 -3.2,-0.74 -4.84,-1.36 -1.61,-0.63 -3.17,-1.47 -4.67,-2.51 -1.48,-1.05 -2.75,-2.35 -3.82,-3.9l4.22 -4.87c0.98,1.22 2.01,2.25 3.07,3.07 1.04,0.82 2.11,1.48 3.17,1.98 1.06,0.49 2.17,0.85 3.26,1.07 1.09,0.21 2.19,0.33 3.26,0.33 1.91,0 3.63,-0.27 5.19,-0.82 1.54,-0.54 2.87,-1.34 3.96,-2.42 1.09,-1.07 1.94,-2.41 2.51,-3.96 0.61,-1.58 0.88,-3.39 0.88,-5.46l0 -4.12c-1.57,1.81 -3.46,3.19 -5.62,4.16 -2.19,0.96 -4.74,1.45 -7.67,1.45 -2.83,0 -5.4,-0.6 -7.7,-1.81 -2.3,-1.2 -4.25,-2.86 -5.87,-5.02 -1.63,-2.16 -2.87,-4.69 -3.76,-7.64 -0.87,-2.93 -1.32,-6.14 -1.32,-9.63l0 -0.91zm8.17 0.91c0,2.36 0.24,4.6 0.74,6.7 0.48,2.1 1.22,3.9 2.23,5.46 1,1.54 2.31,2.77 3.88,3.69 1.58,0.89 3.47,1.36 5.65,1.36 1.44,0 2.73,-0.18 3.88,-0.54 1.16,-0.35 2.2,-0.82 3.11,-1.44 0.93,-0.62 1.74,-1.35 2.44,-2.21 0.71,-0.83 1.32,-1.78 1.84,-2.8l0 -21.67c-0.52,-0.97 -1.13,-1.87 -1.84,-2.71 -0.71,-0.82 -1.51,-1.55 -2.44,-2.17 -0.91,-0.62 -1.95,-1.08 -3.08,-1.42 -1.14,-0.34 -2.41,-0.52 -3.83,-0.52 -2.22,0 -4.11,0.47 -5.7,1.4 -1.57,0.91 -2.87,2.17 -3.9,3.74 -1.02,1.59 -1.77,3.42 -2.25,5.51 -0.5,2.1 -0.74,4.31 -0.74,6.7l0 0.91zm55.03 -18.51c1.69,-2.09 3.73,-3.71 6.09,-4.87 2.38,-1.17 5.02,-1.77 7.96,-1.77 2.31,0 4.4,0.32 6.27,0.94 1.88,0.63 3.47,1.65 4.78,3.04 1.32,1.38 2.33,3.18 3.06,5.35 0.71,2.19 1.06,4.82 1.06,7.93l0 31.1 -8.12 0 0 -31.2c0,-1.84 -0.2,-3.41 -0.62,-4.71 -0.41,-1.3 -1.02,-2.37 -1.81,-3.18 -0.81,-0.82 -1.8,-1.42 -2.98,-1.8 -1.2,-0.39 -2.56,-0.59 -4.1,-0.59 -2.64,0 -4.95,0.71 -6.94,2.12 -2,1.41 -3.56,3.25 -4.66,5.52l0 33.83 -8.12 0 0 -67.39 8.12 0 0 25.67zm55.14 -17.26l0 11.51 8.85 0 0 6.28 -8.85 0 0 29.44c0,1.23 0.13,2.22 0.43,2.96 0.29,0.74 0.68,1.32 1.15,1.73 0.5,0.42 1.05,0.69 1.68,0.82 0.64,0.12 1.27,0.19 1.95,0.19 0.68,0 1.38,-0.07 2.13,-0.19 0.76,-0.14 1.33,-0.26 1.74,-0.33l0 6.57c-0.65,0.18 -1.48,0.37 -2.5,0.58 -1.01,0.21 -2.26,0.31 -3.73,0.31 -1.5,0 -2.9,-0.22 -4.24,-0.65 -1.33,-0.42 -2.48,-1.13 -3.49,-2.13 -0.98,-0.98 -1.78,-2.31 -2.36,-3.92 -0.59,-1.63 -0.86,-3.62 -0.86,-5.99l0 -29.39 -8.66 0 0 -6.28 8.66 0 0 -11.51 8.12 0zm48.71 46.39c0,-0.87 -0.14,-1.71 -0.41,-2.47 -0.26,-0.78 -0.77,-1.51 -1.56,-2.21 -0.77,-0.69 -1.87,-1.31 -3.31,-1.9 -1.42,-0.59 -3.31,-1.12 -5.66,-1.63 -2.61,-0.56 -5,-1.21 -7.09,-1.98 -2.12,-0.76 -3.89,-1.67 -5.38,-2.74 -1.49,-1.06 -2.61,-2.32 -3.4,-3.8 -0.79,-1.46 -1.19,-3.17 -1.19,-5.14 0,-1.87 0.43,-3.64 1.25,-5.33 0.83,-1.68 2.02,-3.16 3.53,-4.43 1.53,-1.28 3.38,-2.29 5.53,-3.03 2.17,-0.75 4.58,-1.12 7.24,-1.12 2.83,0 5.37,0.39 7.61,1.17 2.23,0.77 4.13,1.84 5.7,3.19 1.56,1.33 2.76,2.9 3.58,4.7 0.81,1.81 1.23,3.73 1.23,5.78l-8.16 0c0,-0.97 -0.23,-1.95 -0.67,-2.92 -0.45,-0.99 -1.09,-1.86 -1.93,-2.63 -0.85,-0.78 -1.89,-1.41 -3.12,-1.89 -1.22,-0.49 -2.65,-0.73 -4.25,-0.73 -1.71,0 -3.14,0.2 -4.33,0.59 -1.18,0.41 -2.16,0.93 -2.91,1.59 -0.77,0.66 -1.32,1.41 -1.67,2.23 -0.36,0.84 -0.52,1.7 -0.52,2.58 0,0.86 0.13,1.66 0.43,2.36 0.3,0.71 0.85,1.33 1.67,1.9 0.81,0.58 1.95,1.11 3.35,1.59 1.42,0.48 3.27,0.97 5.51,1.47 2.89,0.68 5.4,1.44 7.55,2.28 2.14,0.85 3.9,1.84 5.32,2.96 1.39,1.12 2.43,2.43 3.13,3.88 0.69,1.47 1.03,3.16 1.03,5.09 0,2.09 -0.44,3.98 -1.3,5.71 -0.85,1.72 -2.1,3.2 -3.71,4.43 -1.62,1.22 -3.53,2.19 -5.79,2.87 -2.25,0.7 -4.75,1.03 -7.5,1.03 -3.16,0 -5.95,-0.45 -8.36,-1.31 -2.41,-0.88 -4.44,-2.06 -6.08,-3.5 -1.64,-1.45 -2.88,-3.1 -3.74,-4.96 -0.83,-1.85 -1.27,-3.77 -1.27,-5.73l8.12 0c0.09,1.68 0.5,3.07 1.21,4.19 0.73,1.12 1.62,2.04 2.7,2.74 1.07,0.71 2.26,1.2 3.55,1.5 1.28,0.28 2.57,0.44 3.86,0.44 1.68,0 3.13,-0.19 4.38,-0.53 1.26,-0.35 2.32,-0.84 3.2,-1.45 0.84,-0.62 1.51,-1.34 1.94,-2.18 0.44,-0.82 0.67,-1.72 0.67,-2.69zm21.61 8.34c0,-1.4 0.42,-2.57 1.24,-3.52 0.83,-0.92 2.1,-1.39 3.76,-1.39 1.66,0 2.93,0.47 3.79,1.39 0.87,0.94 1.31,2.12 1.31,3.52 0,1.35 -0.44,2.47 -1.31,3.37 -0.85,0.91 -2.13,1.37 -3.79,1.37 -1.66,0 -2.92,-0.46 -3.76,-1.37 -0.82,-0.89 -1.24,-2.02 -1.24,-3.37zm26.38 0c0,-1.4 0.42,-2.57 1.24,-3.52 0.84,-0.92 2.1,-1.39 3.77,-1.39 1.66,0 2.93,0.47 3.79,1.39 0.86,0.94 1.3,2.12 1.3,3.52 0,1.35 -0.44,2.47 -1.3,3.37 -0.85,0.91 -2.13,1.37 -3.79,1.37 -1.67,0 -2.92,-0.46 -3.77,-1.37 -0.82,-0.89 -1.24,-2.02 -1.24,-3.37zm74.66 -4.13c-0.62,0.88 -1.47,1.86 -2.54,2.92 -1.09,1.08 -2.51,2.07 -4.28,3.01 -1.77,0.93 -3.94,1.72 -6.52,2.36 -2.57,0.65 -5.66,0.97 -9.26,0.97 -3.88,0 -7.47,-0.69 -10.73,-2.07 -3.25,-1.37 -6.07,-3.35 -8.42,-5.94 -2.35,-2.59 -4.2,-5.77 -5.51,-9.53 -1.32,-3.76 -1.98,-8.01 -1.98,-12.79l0 -5.01c0,-4.76 0.57,-9.01 1.69,-12.76 1.12,-3.75 2.79,-6.92 4.96,-9.53 2.19,-2.6 4.87,-4.59 8.06,-5.97 3.19,-1.36 6.85,-2.06 10.96,-2.06 3.66,0 6.87,0.49 9.62,1.47 2.74,0.97 5.1,2.33 7.02,4.07 1.94,1.76 3.46,3.83 4.6,6.22 1.14,2.39 1.92,5.02 2.33,7.85l-8.44 0c-0.31,-1.73 -0.81,-3.36 -1.51,-4.89 -0.69,-1.54 -1.63,-2.89 -2.83,-4.04 -1.19,-1.15 -2.67,-2.07 -4.43,-2.74 -1.75,-0.68 -3.86,-1 -6.32,-1 -2.98,0 -5.55,0.55 -7.71,1.62 -2.18,1.08 -3.95,2.63 -5.37,4.66 -1.41,2.01 -2.44,4.45 -3.13,7.32 -0.69,2.86 -1.03,6.1 -1.03,9.69l0 5.1c0,3.69 0.44,6.97 1.32,9.87 0.86,2.91 2.11,5.37 3.7,7.38 1.6,2.01 3.52,3.56 5.75,4.6 2.25,1.05 4.72,1.59 7.44,1.59 2.28,0 4.21,-0.17 5.81,-0.47 1.59,-0.31 2.93,-0.69 4.02,-1.13 1.11,-0.47 2,-0.96 2.67,-1.5 0.68,-0.54 1.22,-1.05 1.66,-1.51l0 -14.35 -14.78 0 0 -6.85 23.17 0 0 23.42zm13.35 -15.79c0,-3.46 0.5,-6.65 1.52,-9.58 1,-2.95 2.43,-5.5 4.29,-7.67 1.86,-2.16 4.12,-3.85 6.77,-5.08 2.67,-1.24 5.65,-1.86 8.96,-1.86 3.37,0 6.38,0.62 9.06,1.86 2.68,1.23 4.96,2.92 6.83,5.08 1.88,2.17 3.3,4.72 4.3,7.67 0.98,2.93 1.48,6.12 1.48,9.58l0 0.96c0,3.46 -0.5,6.65 -1.48,9.59 -1,2.95 -2.42,5.49 -4.3,7.63 -1.87,2.16 -4.14,3.84 -6.8,5.05 -2.66,1.21 -5.66,1.83 -9,1.83 -3.34,0 -6.34,-0.62 -9,-1.83 -2.65,-1.21 -4.93,-2.89 -6.8,-5.05 -1.88,-2.14 -3.31,-4.68 -4.31,-7.63 -1.02,-2.94 -1.52,-6.13 -1.52,-9.59l0 -0.96zm8.17 0.96c0,2.36 0.27,4.61 0.82,6.71 0.56,2.12 1.39,3.97 2.52,5.55 1.13,1.59 2.53,2.86 4.21,3.8 1.68,0.94 3.66,1.41 5.9,1.41 2.22,0 4.18,-0.47 5.88,-1.41 1.7,-0.93 3.1,-2.21 4.21,-3.8 1.1,-1.58 1.95,-3.44 2.51,-5.55 0.57,-2.1 0.85,-4.34 0.85,-6.71l0 -0.96c0,-2.34 -0.29,-4.56 -0.85,-6.69 -0.57,-2.13 -1.42,-3.98 -2.54,-5.57 -1.12,-1.6 -2.53,-2.88 -4.22,-3.83 -1.71,-0.93 -3.69,-1.42 -5.93,-1.42 -2.22,0 -4.16,0.49 -5.84,1.42 -1.66,0.94 -3.05,2.23 -4.18,3.83 -1.13,1.59 -1.97,3.45 -2.52,5.57 -0.56,2.13 -0.82,4.34 -0.82,6.69l0 0.96zm45.82 -0.96c0,-3.46 0.5,-6.65 1.51,-9.58 1,-2.95 2.44,-5.5 4.3,-7.67 1.86,-2.16 4.11,-3.85 6.77,-5.08 2.67,-1.24 5.65,-1.86 8.96,-1.86 3.37,0 6.38,0.62 9.06,1.86 2.67,1.23 4.96,2.92 6.83,5.08 1.87,2.17 3.3,4.72 4.3,7.67 0.98,2.93 1.48,6.12 1.48,9.58l0 0.96c0,3.46 -0.5,6.65 -1.48,9.59 -1,2.95 -2.43,5.49 -4.3,7.63 -1.87,2.16 -4.15,3.84 -6.8,5.05 -2.67,1.21 -5.66,1.83 -9,1.83 -3.35,0 -6.34,-0.62 -9,-1.83 -2.65,-1.21 -4.93,-2.89 -6.81,-5.05 -1.87,-2.14 -3.31,-4.68 -4.31,-7.63 -1.01,-2.94 -1.51,-6.13 -1.51,-9.59l0 -0.96zm8.17 0.96c0,2.36 0.27,4.61 0.81,6.71 0.56,2.12 1.4,3.97 2.53,5.55 1.12,1.59 2.53,2.86 4.21,3.8 1.68,0.94 3.66,1.41 5.9,1.41 2.22,0 4.17,-0.47 5.88,-1.41 1.69,-0.93 3.1,-2.21 4.21,-3.8 1.1,-1.58 1.95,-3.44 2.51,-5.55 0.57,-2.1 0.85,-4.34 0.85,-6.71l0 -0.96c0,-2.34 -0.29,-4.56 -0.85,-6.69 -0.57,-2.13 -1.42,-3.98 -2.54,-5.57 -1.12,-1.6 -2.53,-2.88 -4.22,-3.83 -1.71,-0.93 -3.69,-1.42 -5.93,-1.42 -2.22,0 -4.16,0.49 -5.84,1.42 -1.67,0.94 -3.06,2.23 -4.18,3.83 -1.13,1.59 -1.98,3.45 -2.53,5.57 -0.55,2.13 -0.81,4.34 -0.81,6.69l0 0.96zm45.98 -0.91c0,-3.64 0.45,-6.94 1.35,-9.9 0.88,-2.97 2.16,-5.51 3.79,-7.64 1.64,-2.12 3.62,-3.77 5.9,-4.93 2.3,-1.17 4.87,-1.77 7.7,-1.77 2.9,0 5.43,0.5 7.59,1.48 2.18,0.97 4.04,2.38 5.62,4.22l0 -24.74 8.12 0 0 67.39 -7.46 0 -0.39 -5.09c-1.59,1.93 -3.5,3.41 -5.71,4.43 -2.23,1.02 -4.83,1.54 -7.86,1.54 -2.77,0 -5.32,-0.6 -7.61,-1.81 -2.29,-1.2 -4.26,-2.86 -5.9,-5.02 -1.63,-2.16 -2.9,-4.69 -3.79,-7.64 -0.9,-2.93 -1.35,-6.14 -1.35,-9.63l0 -0.91zm8.12 0.91c0,2.36 0.24,4.6 0.74,6.7 0.48,2.1 1.23,3.9 2.27,5.46 1.01,1.54 2.31,2.77 3.89,3.69 1.58,0.89 3.47,1.36 5.66,1.36 1.43,0 2.72,-0.18 3.86,-0.51 1.14,-0.35 2.18,-0.81 3.1,-1.43 0.91,-0.61 1.74,-1.34 2.46,-2.2 0.71,-0.84 1.33,-1.79 1.86,-2.8l0 -21.81c-0.53,-0.97 -1.14,-1.86 -1.85,-2.68 -0.71,-0.82 -1.51,-1.52 -2.44,-2.13 -0.9,-0.6 -1.94,-1.06 -3.08,-1.4 -1.14,-0.34 -2.41,-0.52 -3.82,-0.52 -2.23,0 -4.13,0.47 -5.72,1.4 -1.61,0.91 -2.91,2.17 -3.92,3.74 -1.03,1.59 -1.79,3.42 -2.27,5.51 -0.5,2.1 -0.74,4.31 -0.74,6.7l0 0.91zm70.79 23.21l0 -63.89 18.03 0c4.21,0 8.05,0.71 11.51,2.11 3.45,1.41 6.41,3.42 8.88,6.01 2.46,2.6 4.38,5.76 5.75,9.48 1.36,3.72 2.04,7.89 2.04,12.51l0 3.78c0,4.62 -0.68,8.78 -2.04,12.5 -1.37,3.72 -3.3,6.88 -5.8,9.45 -2.49,2.59 -5.52,4.59 -9.1,5.98 -3.57,1.39 -7.56,2.08 -11.98,2.08l-17.29 0zm8.44 -56.95l0 50.07 8.85 0c3.4,0 6.38,-0.56 8.95,-1.65 2.57,-1.09 4.74,-2.65 6.46,-4.67 1.72,-2.03 3.01,-4.45 3.87,-7.28 0.87,-2.84 1.29,-6.02 1.29,-9.52l0 -3.91c0,-3.66 -0.44,-6.91 -1.3,-9.77 -0.88,-2.84 -2.18,-5.26 -3.86,-7.23 -1.71,-1.98 -3.78,-3.48 -6.23,-4.49 -2.45,-1.03 -5.28,-1.54 -8.44,-1.54l-9.6 0zm71.68 57.84c-3.31,0 -6.31,-0.57 -8.98,-1.72 -2.67,-1.14 -4.96,-2.72 -6.87,-4.76 -1.9,-2.03 -3.37,-4.45 -4.39,-7.25 -1.01,-2.81 -1.54,-5.88 -1.54,-9.23l0 -1.84c0,-3.86 0.59,-7.31 1.74,-10.35 1.15,-3.04 2.69,-5.59 4.63,-7.68 1.93,-2.07 4.14,-3.66 6.64,-4.76 2.48,-1.09 5.08,-1.65 7.75,-1.65 3.41,0 6.33,0.6 8.78,1.78 2.45,1.18 4.47,2.82 6.08,4.9 1.59,2.07 2.77,4.54 3.54,7.37 0.76,2.83 1.13,5.91 1.13,9.25l0 3.65 -32.17 0c0.06,2.2 0.42,4.25 1.08,6.14 0.66,1.9 1.6,3.57 2.81,4.97 1.21,1.39 2.66,2.5 4.39,3.33 1.71,0.82 3.64,1.23 5.81,1.23 2.86,0 5.29,-0.59 7.27,-1.76 2,-1.16 3.74,-2.72 5.23,-4.66l4.96 3.86c-0.77,1.17 -1.68,2.31 -2.77,3.4 -1.07,1.11 -2.33,2.09 -3.79,2.95 -1.45,0.85 -3.12,1.55 -4.99,2.06 -1.87,0.53 -3.98,0.77 -6.35,0.77zm-1.02 -42.56c-1.63,0 -3.14,0.3 -4.52,0.9 -1.36,0.6 -2.59,1.46 -3.69,2.6 -1.07,1.14 -1.98,2.56 -2.69,4.25 -0.72,1.71 -1.2,3.66 -1.47,5.84l23.79 0 0 -0.62c-0.09,-1.57 -0.35,-3.14 -0.77,-4.69 -0.44,-1.55 -1.09,-2.95 -1.98,-4.17 -0.89,-1.23 -2.04,-2.22 -3.44,-2.98 -1.41,-0.77 -3.15,-1.14 -5.24,-1.14z"/>
    <path class="fil1" d="M1089.08 823.41c-3.31,0 -6.3,-0.57 -8.98,-1.72 -2.66,-1.14 -4.96,-2.72 -6.86,-4.76 -1.91,-2.03 -3.38,-4.45 -4.39,-7.25 -1.02,-2.81 -1.54,-5.88 -1.54,-9.23l0 -1.84c0,-3.86 0.58,-7.31 1.73,-10.35 1.16,-3.04 2.7,-5.59 4.63,-7.68 1.94,-2.07 4.15,-3.66 6.64,-4.76 2.48,-1.09 5.08,-1.65 7.76,-1.65 3.4,0 6.32,0.6 8.77,1.78 2.45,1.18 4.48,2.82 6.08,4.9 1.59,2.07 2.77,4.54 3.54,7.37 0.77,2.83 1.14,5.91 1.14,9.25l0 3.65 -32.17 0c0.06,2.2 0.42,4.25 1.07,6.14 0.66,1.9 1.6,3.57 2.82,4.97 1.21,1.39 2.66,2.5 4.38,3.33 1.71,0.82 3.65,1.23 5.81,1.23 2.86,0 5.29,-0.59 7.28,-1.76 1.99,-1.16 3.73,-2.72 5.23,-4.66l4.96 3.86c-0.77,1.17 -1.68,2.31 -2.77,3.4 -1.08,1.11 -2.33,2.09 -3.8,2.95 -1.45,0.85 -3.11,1.55 -4.99,2.06 -1.87,0.53 -3.97,0.77 -6.35,0.77zm-1.01 -42.56c-1.63,0 -3.15,0.3 -4.52,0.9 -1.37,0.6 -2.59,1.46 -3.69,2.6 -1.08,1.14 -1.98,2.56 -2.7,4.25 -0.72,1.71 -1.19,3.66 -1.46,5.84l23.78 0 0 -0.62c-0.09,-1.57 -0.34,-3.14 -0.76,-4.69 -0.44,-1.55 -1.09,-2.95 -1.98,-4.17 -0.9,-1.23 -2.04,-2.22 -3.45,-2.98 -1.41,-0.77 -3.15,-1.14 -5.23,-1.14zm29.68 17.56c0,-3.64 0.45,-6.94 1.35,-9.9 0.88,-2.97 2.16,-5.51 3.79,-7.64 1.63,-2.12 3.61,-3.77 5.9,-4.93 2.3,-1.17 4.87,-1.77 7.7,-1.77 2.9,0 5.43,0.5 7.59,1.48 2.18,0.97 4.04,2.38 5.61,4.22l0 -24.74 8.12 0 0 67.39 -7.45 0 -0.4 -5.09c-1.58,1.93 -3.49,3.41 -5.7,4.43 -2.23,1.02 -4.84,1.54 -7.86,1.54 -2.77,0 -5.32,-0.6 -7.61,-1.81 -2.3,-1.2 -4.27,-2.86 -5.9,-5.02 -1.63,-2.16 -2.9,-4.69 -3.79,-7.64 -0.9,-2.93 -1.35,-6.14 -1.35,-9.63l0 -0.91zm8.12 0.91c0,2.36 0.24,4.6 0.74,6.7 0.48,2.1 1.23,3.9 2.27,5.46 1.01,1.54 2.31,2.77 3.88,3.69 1.59,0.89 3.48,1.36 5.66,1.36 1.44,0 2.73,-0.18 3.86,-0.51 1.14,-0.35 2.18,-0.81 3.1,-1.43 0.91,-0.61 1.74,-1.34 2.45,-2.2 0.71,-0.84 1.34,-1.79 1.86,-2.8l0 -21.81c-0.52,-0.97 -1.13,-1.86 -1.84,-2.68 -0.71,-0.82 -1.51,-1.52 -2.44,-2.13 -0.91,-0.6 -1.95,-1.06 -3.08,-1.4 -1.14,-0.34 -2.41,-0.52 -3.83,-0.52 -2.22,0 -4.13,0.47 -5.72,1.4 -1.6,0.91 -2.9,2.17 -3.91,3.74 -1.03,1.59 -1.79,3.42 -2.27,5.51 -0.5,2.1 -0.74,4.31 -0.74,6.7l0 0.91zm74.92 10.62c0,-0.87 -0.13,-1.71 -0.41,-2.47 -0.25,-0.78 -0.77,-1.51 -1.55,-2.21 -0.77,-0.69 -1.88,-1.31 -3.31,-1.9 -1.43,-0.59 -3.32,-1.12 -5.66,-1.63 -2.62,-0.56 -5.01,-1.21 -7.1,-1.98 -2.11,-0.76 -3.89,-1.67 -5.38,-2.74 -1.48,-1.06 -2.6,-2.32 -3.4,-3.8 -0.79,-1.46 -1.18,-3.17 -1.18,-5.14 0,-1.87 0.42,-3.64 1.24,-5.33 0.83,-1.68 2.02,-3.16 3.54,-4.43 1.52,-1.28 3.37,-2.29 5.52,-3.03 2.18,-0.75 4.58,-1.12 7.24,-1.12 2.83,0 5.37,0.39 7.61,1.17 2.24,0.77 4.13,1.84 5.71,3.19 1.55,1.33 2.75,2.9 3.58,4.7 0.8,1.81 1.22,3.73 1.22,5.78l-8.16 0c0,-0.97 -0.23,-1.95 -0.66,-2.92 -0.46,-0.99 -1.09,-1.86 -1.94,-2.63 -0.85,-0.78 -1.89,-1.41 -3.11,-1.89 -1.23,-0.49 -2.65,-0.73 -4.26,-0.73 -1.7,0 -3.14,0.2 -4.32,0.59 -1.18,0.41 -2.16,0.93 -2.92,1.59 -0.77,0.66 -1.32,1.41 -1.66,2.23 -0.37,0.84 -0.53,1.7 -0.53,2.58 0,0.86 0.13,1.66 0.44,2.36 0.3,0.71 0.84,1.33 1.66,1.9 0.82,0.58 1.95,1.11 3.35,1.59 1.43,0.48 3.27,0.97 5.51,1.47 2.89,0.68 5.4,1.44 7.55,2.28 2.14,0.85 3.9,1.84 5.32,2.96 1.39,1.12 2.44,2.43 3.13,3.88 0.69,1.47 1.03,3.16 1.03,5.09 0,2.09 -0.44,3.98 -1.3,5.71 -0.85,1.72 -2.1,3.2 -3.7,4.43 -1.62,1.22 -3.54,2.19 -5.8,2.87 -2.25,0.7 -4.75,1.03 -7.5,1.03 -3.16,0 -5.94,-0.45 -8.36,-1.31 -2.41,-0.88 -4.43,-2.06 -6.08,-3.5 -1.63,-1.45 -2.87,-3.1 -3.73,-4.96 -0.84,-1.85 -1.28,-3.77 -1.28,-5.73l8.13 0c0.09,1.68 0.49,3.07 1.21,4.19 0.72,1.12 1.61,2.04 2.69,2.74 1.07,0.71 2.27,1.2 3.55,1.5 1.29,0.28 2.57,0.44 3.86,0.44 1.68,0 3.13,-0.19 4.39,-0.53 1.25,-0.35 2.31,-0.84 3.19,-1.45 0.85,-0.62 1.51,-1.34 1.95,-2.18 0.44,-0.82 0.66,-1.72 0.66,-2.69zm21.61 8.34c0,-1.4 0.42,-2.57 1.24,-3.52 0.83,-0.92 2.1,-1.39 3.76,-1.39 1.67,0 2.94,0.47 3.8,1.39 0.86,0.94 1.3,2.12 1.3,3.52 0,1.35 -0.44,2.47 -1.3,3.37 -0.85,0.91 -2.13,1.37 -3.8,1.37 -1.66,0 -2.92,-0.46 -3.76,-1.37 -0.82,-0.89 -1.24,-2.02 -1.24,-3.37zm26.39 0c0,-1.4 0.42,-2.57 1.24,-3.52 0.83,-0.92 2.1,-1.39 3.76,-1.39 1.66,0 2.93,0.47 3.79,1.39 0.87,0.94 1.31,2.12 1.31,3.52 0,1.35 -0.44,2.47 -1.31,3.37 -0.85,0.91 -2.13,1.37 -3.79,1.37 -1.66,0 -2.92,-0.46 -3.76,-1.37 -0.82,-0.89 -1.24,-2.02 -1.24,-3.37zm27.47 4.25l0 -63.89 20.89 0c3.27,0 6.2,0.33 8.77,0.98 2.56,0.67 4.75,1.7 6.57,3.07 1.79,1.39 3.16,3.16 4.11,5.29 0.94,2.15 1.42,4.71 1.42,7.69 0,2.98 -0.83,5.63 -2.54,7.92 -1.69,2.3 -3.99,4.07 -6.94,5.34 1.8,0.49 3.37,1.22 4.76,2.19 1.4,0.97 2.56,2.11 3.53,3.43 0.94,1.32 1.66,2.78 2.17,4.43 0.5,1.64 0.74,3.34 0.74,5.14 0,2.98 -0.5,5.62 -1.51,7.91 -1,2.31 -2.42,4.24 -4.27,5.8 -1.84,1.57 -4.07,2.73 -6.68,3.53 -2.59,0.79 -5.49,1.18 -8.68,1.18l-22.34 0zm8.44 -29.88l0 22.99 13.9 0c2.02,0 3.82,-0.27 5.38,-0.8 1.57,-0.55 2.89,-1.31 3.96,-2.3 1.09,-0.97 1.92,-2.18 2.49,-3.6 0.57,-1.41 0.84,-2.99 0.84,-4.76 0,-1.76 -0.24,-3.34 -0.7,-4.78 -0.47,-1.44 -1.2,-2.65 -2.22,-3.64 -1,-1 -2.3,-1.77 -3.84,-2.31 -1.56,-0.54 -3.41,-0.8 -5.53,-0.8l-14.3 0zm0 -6.76l12.72 0c1.81,0 3.47,-0.24 4.96,-0.71 1.49,-0.46 2.76,-1.13 3.85,-2.02 1.06,-0.88 1.89,-1.95 2.47,-3.22 0.58,-1.27 0.88,-2.71 0.88,-4.33 0,-3.51 -1.03,-6.06 -3.07,-7.65 -2.06,-1.6 -5.17,-2.39 -9.35,-2.39l-12.46 0 0 20.32zm71.91 -3.56c-0.69,-0.11 -1.35,-0.2 -1.95,-0.25 -0.6,-0.04 -1.27,-0.06 -2.04,-0.06 -2.81,0 -5.11,0.62 -6.88,1.85 -1.77,1.22 -3.08,2.87 -3.96,4.96l0 33.69 -8.12 0 0 -47.47 7.91 0 0.12 5.48c1.22,-1.97 2.76,-3.51 4.61,-4.65 1.84,-1.13 4.07,-1.72 6.71,-1.72 0.59,0 1.26,0.08 2.03,0.21 0.76,0.12 1.28,0.27 1.57,0.41l0 7.55zm8.05 16.02c0,-3.46 0.5,-6.65 1.52,-9.58 1,-2.95 2.43,-5.5 4.29,-7.67 1.86,-2.16 4.12,-3.85 6.78,-5.08 2.66,-1.24 5.64,-1.86 8.95,-1.86 3.37,0 6.38,0.62 9.06,1.86 2.68,1.23 4.96,2.92 6.83,5.08 1.88,2.17 3.3,4.72 4.3,7.67 0.99,2.93 1.48,6.12 1.48,9.58l0 0.96c0,3.46 -0.49,6.65 -1.48,9.59 -1,2.95 -2.42,5.49 -4.3,7.63 -1.87,2.16 -4.14,3.84 -6.8,5.05 -2.66,1.21 -5.66,1.83 -9,1.83 -3.34,0 -6.33,-0.62 -9,-1.83 -2.65,-1.21 -4.93,-2.89 -6.8,-5.05 -1.88,-2.14 -3.31,-4.68 -4.31,-7.63 -1.02,-2.94 -1.52,-6.13 -1.52,-9.59l0 -0.96zm8.17 0.96c0,2.36 0.27,4.61 0.82,6.71 0.56,2.12 1.39,3.97 2.53,5.55 1.12,1.59 2.52,2.86 4.2,3.8 1.68,0.94 3.66,1.41 5.9,1.41 2.22,0 4.18,-0.47 5.89,-1.41 1.69,-0.93 3.1,-2.21 4.2,-3.8 1.11,-1.58 1.95,-3.44 2.51,-5.55 0.58,-2.1 0.85,-4.34 0.85,-6.71l0 -0.96c0,-2.34 -0.28,-4.56 -0.85,-6.69 -0.57,-2.13 -1.42,-3.98 -2.54,-5.57 -1.12,-1.6 -2.53,-2.88 -4.22,-3.83 -1.71,-0.93 -3.69,-1.42 -5.93,-1.42 -2.22,0 -4.16,0.49 -5.84,1.42 -1.66,0.94 -3.05,2.23 -4.17,3.83 -1.14,1.59 -1.98,3.45 -2.53,5.57 -0.56,2.13 -0.82,4.34 -0.82,6.69l0 0.96zm77.28 23.21c-0.29,-0.58 -0.53,-1.31 -0.71,-2.22 -0.17,-0.89 -0.32,-1.83 -0.44,-2.78 -0.77,0.79 -1.62,1.54 -2.56,2.26 -0.95,0.73 -1.99,1.35 -3.11,1.89 -1.14,0.55 -2.35,0.96 -3.67,1.28 -1.32,0.3 -2.71,0.46 -4.17,0.46 -2.42,0 -4.62,-0.37 -6.6,-1.1 -1.98,-0.73 -3.66,-1.73 -5.05,-2.98 -1.39,-1.26 -2.47,-2.74 -3.22,-4.45 -0.77,-1.71 -1.15,-3.55 -1.15,-5.51 0,-2.54 0.51,-4.79 1.49,-6.74 0.99,-1.93 2.43,-3.57 4.28,-4.88 1.86,-1.32 4.1,-2.32 6.73,-2.98 2.64,-0.68 5.57,-1.02 8.82,-1.02l8.08 0 0 -3.73c0,-2.83 -0.84,-5.1 -2.55,-6.79 -1.69,-1.68 -4.19,-2.51 -7.5,-2.51 -1.51,0 -2.9,0.21 -4.16,0.62 -1.26,0.4 -2.33,0.95 -3.22,1.64 -0.89,0.7 -1.59,1.49 -2.09,2.39 -0.51,0.9 -0.75,1.86 -0.75,2.85l-8.16 0c0,-1.69 0.45,-3.39 1.33,-5.05 0.89,-1.66 2.16,-3.16 3.81,-4.49 1.63,-1.33 3.61,-2.41 5.94,-3.25 2.32,-0.84 4.91,-1.26 7.79,-1.26 2.56,0 4.94,0.33 7.12,0.98 2.18,0.67 4.04,1.67 5.59,3 1.55,1.32 2.77,2.98 3.64,4.97 0.88,2 1.32,4.32 1.32,6.98l0 22.08c0,1.6 0.13,3.29 0.42,5.06 0.28,1.77 0.69,3.3 1.25,4.59l0 0.7 -8.51 0zm-13.46 -6.18c1.45,0 2.82,-0.21 4.11,-0.62 1.29,-0.41 2.45,-0.94 3.52,-1.6 1.05,-0.67 1.97,-1.41 2.74,-2.27 0.77,-0.85 1.38,-1.72 1.82,-2.63l0 -9.74 -6.76 0c-4.64,0 -8.24,0.72 -10.76,2.18 -2.51,1.45 -3.77,3.64 -3.77,6.56 0,1.13 0.19,2.2 0.57,3.2 0.39,0.99 0.95,1.85 1.74,2.56 0.77,0.72 1.72,1.29 2.86,1.71 1.12,0.44 2.42,0.65 3.92,0.65zm33.79 -17.94c0,-3.64 0.46,-6.94 1.35,-9.9 0.88,-2.97 2.16,-5.51 3.79,-7.64 1.64,-2.12 3.62,-3.77 5.9,-4.93 2.3,-1.17 4.87,-1.77 7.7,-1.77 2.91,0 5.43,0.5 7.59,1.48 2.18,0.97 4.04,2.38 5.62,4.22l0 -24.74 8.12 0 0 67.39 -7.46 0 -0.39 -5.09c-1.59,1.93 -3.49,3.41 -5.71,4.43 -2.23,1.02 -4.83,1.54 -7.86,1.54 -2.77,0 -5.32,-0.6 -7.61,-1.81 -2.29,-1.2 -4.26,-2.86 -5.9,-5.02 -1.63,-2.16 -2.9,-4.69 -3.79,-7.64 -0.89,-2.93 -1.35,-6.14 -1.35,-9.63l0 -0.91zm8.12 0.91c0,2.36 0.25,4.6 0.74,6.7 0.48,2.1 1.23,3.9 2.27,5.46 1.01,1.54 2.32,2.77 3.89,3.69 1.59,0.89 3.48,1.36 5.66,1.36 1.43,0 2.72,-0.18 3.86,-0.51 1.14,-0.35 2.18,-0.81 3.1,-1.43 0.91,-0.61 1.74,-1.34 2.46,-2.2 0.71,-0.84 1.33,-1.79 1.86,-2.8l0 -21.81c-0.53,-0.97 -1.14,-1.86 -1.85,-2.68 -0.71,-0.82 -1.51,-1.52 -2.44,-2.13 -0.9,-0.6 -1.94,-1.06 -3.08,-1.4 -1.14,-0.34 -2.41,-0.52 -3.82,-0.52 -2.23,0 -4.13,0.47 -5.72,1.4 -1.6,0.91 -2.91,2.17 -3.92,3.74 -1.03,1.59 -1.79,3.42 -2.27,5.51 -0.49,2.1 -0.74,4.31 -0.74,6.7l0 0.91zm91.94 12.02l18.25 -52.7 9.21 0 -23.69 63.89 -7.46 0 -23.65 -63.89 9.16 0 18.17 52.7zm46.3 11.19l-8.12 0 0 -47.47 8.12 0 0 47.47zm-8.77 -60.07c0,-1.31 0.41,-2.42 1.21,-3.32 0.79,-0.91 1.99,-1.37 3.57,-1.37 1.59,0 2.78,0.46 3.61,1.37 0.8,0.89 1.23,2.01 1.23,3.32 0,1.32 -0.43,2.41 -1.23,3.3 -0.82,0.88 -2.02,1.31 -3.61,1.31 -1.58,0 -2.77,-0.43 -3.57,-1.31 -0.8,-0.88 -1.21,-1.98 -1.21,-3.3zm52.14 47.48c0,-0.87 -0.13,-1.71 -0.4,-2.47 -0.26,-0.78 -0.78,-1.51 -1.56,-2.21 -0.77,-0.69 -1.88,-1.31 -3.31,-1.9 -1.43,-0.59 -3.31,-1.12 -5.66,-1.63 -2.62,-0.56 -5.01,-1.21 -7.1,-1.98 -2.11,-0.76 -3.89,-1.67 -5.38,-2.74 -1.48,-1.06 -2.6,-2.32 -3.4,-3.8 -0.79,-1.46 -1.18,-3.17 -1.18,-5.14 0,-1.87 0.42,-3.64 1.24,-5.33 0.83,-1.68 2.03,-3.16 3.54,-4.43 1.53,-1.28 3.37,-2.29 5.52,-3.03 2.18,-0.75 4.58,-1.12 7.25,-1.12 2.82,0 5.36,0.39 7.6,1.17 2.24,0.77 4.13,1.84 5.71,3.19 1.55,1.33 2.75,2.9 3.58,4.7 0.8,1.81 1.23,3.73 1.23,5.78l-8.17 0c0,-0.97 -0.23,-1.95 -0.66,-2.92 -0.46,-0.99 -1.09,-1.86 -1.94,-2.63 -0.85,-0.78 -1.89,-1.41 -3.11,-1.89 -1.23,-0.49 -2.65,-0.73 -4.25,-0.73 -1.71,0 -3.15,0.2 -4.33,0.59 -1.18,0.41 -2.16,0.93 -2.92,1.59 -0.77,0.66 -1.32,1.41 -1.66,2.23 -0.36,0.84 -0.53,1.7 -0.53,2.58 0,0.86 0.14,1.66 0.44,2.36 0.3,0.71 0.85,1.33 1.66,1.9 0.82,0.58 1.95,1.11 3.36,1.59 1.42,0.48 3.26,0.97 5.5,1.47 2.89,0.68 5.41,1.44 7.55,2.28 2.15,0.85 3.9,1.84 5.32,2.96 1.39,1.12 2.44,2.43 3.13,3.88 0.7,1.47 1.03,3.16 1.03,5.09 0,2.09 -0.43,3.98 -1.3,5.71 -0.85,1.72 -2.1,3.2 -3.7,4.43 -1.62,1.22 -3.54,2.19 -5.8,2.87 -2.25,0.7 -4.74,1.03 -7.5,1.03 -3.16,0 -5.94,-0.45 -8.36,-1.31 -2.41,-0.88 -4.43,-2.06 -6.08,-3.5 -1.63,-1.45 -2.87,-3.1 -3.73,-4.96 -0.84,-1.85 -1.27,-3.77 -1.27,-5.73l8.12 0c0.09,1.68 0.49,3.07 1.21,4.19 0.72,1.12 1.62,2.04 2.69,2.74 1.08,0.71 2.27,1.2 3.55,1.5 1.29,0.28 2.58,0.44 3.86,0.44 1.68,0 3.13,-0.19 4.39,-0.53 1.26,-0.35 2.32,-0.84 3.19,-1.45 0.85,-0.62 1.51,-1.34 1.95,-2.18 0.44,-0.82 0.66,-1.72 0.66,-2.69zm30.25 12.59l-8.12 0 0 -47.47 8.12 0 0 47.47zm-8.78 -60.07c0,-1.31 0.41,-2.42 1.22,-3.32 0.78,-0.91 1.99,-1.37 3.56,-1.37 1.59,0 2.79,0.46 3.62,1.37 0.8,0.89 1.22,2.01 1.22,3.32 0,1.32 -0.42,2.41 -1.22,3.3 -0.82,0.88 -2.03,1.31 -3.62,1.31 -1.57,0 -2.77,-0.43 -3.56,-1.31 -0.81,-0.88 -1.22,-1.98 -1.22,-3.3zm22.37 35.9c0,-3.46 0.49,-6.65 1.51,-9.58 1,-2.95 2.44,-5.5 4.29,-7.67 1.86,-2.16 4.12,-3.85 6.78,-5.08 2.66,-1.24 5.64,-1.86 8.95,-1.86 3.37,0 6.38,0.62 9.06,1.86 2.68,1.23 4.96,2.92 6.84,5.08 1.87,2.17 3.29,4.72 4.29,7.67 0.99,2.93 1.48,6.12 1.48,9.58l0 0.96c0,3.46 -0.49,6.65 -1.48,9.59 -1,2.95 -2.42,5.49 -4.29,7.63 -1.88,2.16 -4.15,3.84 -6.81,5.05 -2.66,1.21 -5.66,1.83 -9,1.83 -3.34,0 -6.33,-0.62 -9,-1.83 -2.65,-1.21 -4.93,-2.89 -6.8,-5.05 -1.87,-2.14 -3.31,-4.68 -4.31,-7.63 -1.02,-2.94 -1.51,-6.13 -1.51,-9.59l0 -0.96zm8.16 0.96c0,2.36 0.27,4.61 0.82,6.71 0.56,2.12 1.39,3.97 2.53,5.55 1.12,1.59 2.53,2.86 4.2,3.8 1.68,0.94 3.66,1.41 5.9,1.41 2.22,0 4.18,-0.47 5.89,-1.41 1.69,-0.93 3.1,-2.21 4.2,-3.8 1.11,-1.58 1.95,-3.44 2.51,-5.55 0.58,-2.1 0.85,-4.34 0.85,-6.71l0 -0.96c0,-2.34 -0.28,-4.56 -0.85,-6.69 -0.57,-2.13 -1.42,-3.98 -2.54,-5.57 -1.12,-1.6 -2.53,-2.88 -4.22,-3.83 -1.71,-0.93 -3.69,-1.42 -5.93,-1.42 -2.22,0 -4.16,0.49 -5.84,1.42 -1.66,0.94 -3.05,2.23 -4.17,3.83 -1.14,1.59 -1.98,3.45 -2.53,5.57 -0.56,2.13 -0.82,4.34 -0.82,6.69l0 0.96zm55.65 -24.26l0.26 5.97c1.71,-2.14 3.75,-3.82 6.15,-5.03 2.39,-1.21 5.08,-1.83 8.08,-1.83 2.31,0 4.4,0.32 6.27,0.94 1.88,0.63 3.47,1.65 4.78,3.04 1.32,1.38 2.33,3.18 3.06,5.35 0.71,2.19 1.06,4.82 1.06,7.93l0 31.1 -8.12 0 0 -31.2c0,-1.84 -0.2,-3.41 -0.62,-4.71 -0.41,-1.3 -1.02,-2.37 -1.81,-3.18 -0.81,-0.82 -1.8,-1.42 -2.98,-1.8 -1.2,-0.39 -2.56,-0.59 -4.1,-0.59 -2.64,0 -4.95,0.71 -6.94,2.12 -2,1.41 -3.56,3.25 -4.66,5.52l0 33.83 -8.12 0 0 -47.47 7.68 0z"/>
   </g>
   <g>
    <polygon class="fil1" points="1799.34,714.62 -0,714.62 -0,705.5 1799.34,705.5 "/>
   </g>
  </g>
 </g>
</svg>
